<svg width="34" height="90" viewBox="0 0 34 90" fill="none" xmlns="http://www.w3.org/2000/svg">
<path d="M30.968 83.736C32.408 84.12 32.168 84.456 30.248 84.744C29.96 84.84 29.72 84.888 29.528 84.888C30.008 84.888 29.96 84.888 29.384 84.888C29 84.984 28.472 85.08 27.8 85.176H27.512C26.648 85.368 25.784 85.512 24.92 85.608C22.808 86.088 21.368 86.856 20.6 87.912C20.12 88.68 18.152 88.968 14.696 88.776C14.312 88.68 13.976 88.632 13.688 88.632C13.496 88.632 13.112 88.584 12.536 88.488C11.96 88.392 11.528 88.248 11.24 88.056C11.048 87.864 11.048 87.624 11.24 87.336C12.296 85.992 14.264 84.984 17.144 84.312C15.704 84.12 14.84 83.832 14.552 83.448C13.88 82.68 13.304 81.768 12.824 80.712C12.344 79.56 11.912 78.552 11.528 77.688C11.24 76.728 10.952 75.528 10.664 74.088C10.376 72.552 10.184 71.448 10.088 70.776C9.992 70.008 9.848 68.808 9.656 67.176C9.464 65.448 9.32 64.344 9.224 63.864C8.456 58.776 8.024 52.056 7.928 43.704C7.928 35.544 8.408 27.192 9.368 18.648C9.272 18.744 9.128 18.936 8.936 19.224C8.744 19.416 8.552 19.608 8.36 19.8C8.264 19.992 8.12 20.184 7.928 20.376C7.448 20.952 5.96 21.144 3.464 20.952C3.176 20.952 2.936 20.952 2.744 20.952C2.552 20.856 2.216 20.808 1.736 20.808C1.352 20.712 1.064 20.616 0.872 20.52C0.68 20.328 0.68 20.136 0.872 19.944C3.176 17.256 5.288 14.664 7.208 12.168C7.4 11.88 7.928 11.16 8.792 10.008C9.752 8.75999 10.472 7.84799 10.952 7.272C11.24 5.63999 11.528 4.15199 11.816 2.80799C12.008 1.94399 13.304 1.41599 15.704 1.224C18.104 1.03199 20.408 1.12799 22.616 1.51199C24.92 1.8 26.072 2.232 26.072 2.80799C24.056 15.768 23.096 29.16 23.192 42.984C23.192 46.056 23.432 52.776 23.912 63.144C24.2 68.616 24.392 71.976 24.488 73.224C24.584 73.512 24.632 74.088 24.632 74.952C24.728 75.72 24.776 76.296 24.776 76.68C24.872 77.064 24.92 77.592 24.92 78.264C24.92 78.936 24.872 79.512 24.776 79.992C24.776 80.472 24.728 81 24.632 81.576C24.536 82.152 24.344 82.68 24.056 83.16C26.744 82.968 29.048 83.16 30.968 83.736Z" fill="white"/>
</svg>
