<svg width="47" height="93" viewBox="0 0 47 93" fill="none" xmlns="http://www.w3.org/2000/svg">
<path d="M44.944 79.512C46 79.608 46.528 79.752 46.528 79.944C46.432 80.232 45.904 80.376 44.944 80.376C42.352 80.376 39.664 80.808 36.88 81.672C34.096 82.536 31.936 83.352 30.4 84.12C28.96 84.792 26.608 86.04 23.344 87.864C17.872 90.84 12.688 91.512 7.792 89.88C3.76 88.536 2.704 84.024 4.624 76.344C5.392 72.984 7.6 66.888 11.248 58.056C12.304 55.656 13.888 51.912 16 46.824C18.208 41.64 20.08 37.08 21.616 33.144C23.248 29.112 24.736 25.272 26.08 21.624C26.848 19.224 27.424 17.352 27.808 16.008C28.192 14.568 28.432 12.648 28.528 10.248C28.624 7.84799 28.192 5.928 27.232 4.488C26.56 3.528 25.696 3.048 24.64 3.048C23.584 2.95199 22.528 3.19199 21.472 3.768C20.512 4.248 19.456 5.016 18.304 6.07199C17.248 7.03199 16.336 7.94399 15.568 8.80799C14.896 9.576 14.272 10.344 13.696 11.112C7.552 18.984 4.72 29.208 5.2 41.784C5.2 41.976 4.864 42.12 4.192 42.216C3.52 42.312 2.848 42.36 2.176 42.36C1.504 42.264 1.168 42.072 1.168 41.784C0.784 34.968 1.504 28.488 3.328 22.344C5.152 16.104 8.32 10.92 12.832 6.79199C16.672 3.144 20.848 1.272 25.36 1.176C32.368 0.887996 36.88 2.75999 38.896 6.79199C39.568 8.13599 39.952 9.576 40.048 11.112C40.24 12.648 40.144 14.376 39.76 16.296C39.472 18.216 39.184 19.752 38.896 20.904C38.608 21.96 38.176 23.448 37.6 25.368C36.352 29.688 33.856 36.504 30.112 45.816C29.248 47.832 27.856 51.096 25.936 55.608C24.016 60.12 22.576 63.576 21.616 65.976C21.424 66.552 20.944 67.752 20.176 69.576C19.408 71.4 18.832 72.792 18.448 73.752C18.16 74.712 17.728 75.96 17.152 77.496C16.672 79.032 16.336 80.472 16.144 81.816C15.952 83.16 15.904 84.504 16 85.848C16 85.944 16.048 86.136 16.144 86.424C16.72 86.232 17.152 86.088 17.44 85.992C19.552 85.128 23.104 83.88 28.096 82.248C34.048 80.328 39.664 79.416 44.944 79.512Z" fill="white"/>
</svg>
