<svg width="38" height="86" viewBox="0 0 38 86" fill="none" xmlns="http://www.w3.org/2000/svg">
<path d="M35.016 28.976C33.096 33.488 30.216 38.48 26.376 43.952C22.728 49.232 20.04 52.88 18.312 54.896C21.864 55.088 25.032 55.808 27.816 57.056C31.368 58.784 33.912 61.232 35.448 64.4C36.984 67.568 37.224 71.024 36.168 74.768C35.592 76.784 34.632 78.56 33.288 80.096C31.944 81.536 30.36 82.688 28.536 83.552C26.808 84.32 24.888 84.8 22.776 84.992C19.8 85.088 17.064 84.656 14.568 83.696C13.128 83.12 11.304 82.016 9.096 80.384C6.888 78.656 5.256 77.504 4.2 76.928C3.624 76.64 4.584 76.256 7.08 75.776L9.24 75.488C12.792 75.584 14.472 76.064 14.28 76.928C13.032 78.656 13.896 80.432 16.872 82.256C19.752 84.08 22.536 84.32 25.224 82.976C26.856 82.112 28.248 80.912 29.4 79.376C30.648 77.744 31.416 76.064 31.704 74.336C32.184 70.592 30.168 66.464 25.656 61.952C21.24 57.536 17.688 56.384 15 58.496C13.752 59.552 10.68 59.744 5.784 59.072C3.288 58.784 2.136 58.352 2.328 57.776C3.384 56.24 5.064 54.176 7.368 51.584C9.672 48.896 11.112 47.168 11.688 46.4C14.856 42.464 17.688 38.48 20.184 34.448C21.336 32.624 22.248 31.136 22.92 29.984C23.688 28.736 24.552 27.056 25.512 24.944C26.472 22.832 27.096 21.008 27.384 19.472C27.768 17.84 27.912 16.064 27.816 14.144C27.816 12.224 27.384 10.496 26.52 8.96C25.08 6.08 23.352 4.64 21.336 4.64C19.608 4.64 17.544 5.984 15.144 8.672C12.264 11.84 9.864 15.728 7.944 20.336C3.144 31.76 3.048 39.776 7.656 44.384L5.064 44.96C4.392 44.96 3.96 44.864 3.768 44.672C1.464 42.464 0.264 39.44 0.168 35.6C0.0720002 31.664 0.552 28.064 1.608 24.8C2.76 21.536 4.152 18.416 5.784 15.44C11.352 5.744 17.928 1.856 25.512 3.77599C29.256 4.73599 32.136 6.65599 34.152 9.536C36.168 12.32 37.128 15.392 37.032 18.752C36.936 22.112 36.264 25.52 35.016 28.976Z" fill="white"/>
</svg>
