<svg width="37" height="37" viewBox="0 0 37 37" fill="none" xmlns="http://www.w3.org/2000/svg">
<path d="M36.3545 9.26858C33.3159 2.80768 25.3288 -1.46798 16.9209 0.469826C12.9482 1.37861 9.41478 3.61009 6.74856 6.37574C4.15182 9.11447 2.22457 12.4173 1.11782 16.0255C0.0679831 19.5588 -0.401438 23.2055 0.414846 27.2037C0.856518 29.197 1.61268 31.0955 3.06488 32.9362C4.43456 34.5807 6.24398 35.8014 8.2817 36.4557C12.0625 37.5402 15.5797 36.8997 18.4795 35.4405C21.3515 34.0184 23.7934 31.3499 24.2466 28.2859C24.464 26.769 23.0049 26.7667 22.6511 27.8697C20.8451 32.7859 14.0604 33.7294 10.4762 31.521C6.85031 29.3889 7.73596 24.4265 9.79633 20.4191C11.8544 16.4209 15.471 13.4356 18.861 12.7002C19.7305 12.4736 20.5121 12.4204 21.2336 12.4736C21.9828 12.5152 22.7551 12.6447 23.4997 12.9083C25.0028 13.3708 26.344 14.275 27.2412 15.2207C27.8656 15.9145 28.5709 16.1133 29.5583 16.2868C30.5665 16.4278 31.7551 16.5573 33.0246 16.3908C34.2617 16.222 35.4757 15.7272 36.2851 14.5247C37.0829 13.3593 37.3534 11.4076 36.3545 9.26858" fill="#FACC15"/>
</svg>
