<svg width="760" height="506" viewBox="0 0 760 506" fill="none" xmlns="http://www.w3.org/2000/svg">
<g clip-path="url(#clip0_7_26)">
<path d="M558.903 346.263C558.903 346.263 565.819 341.564 554.572 336.88C554.769 334.758 554.484 332.619 553.738 330.618C552.991 328.618 551.801 326.806 550.255 325.315C550.255 325.315 558.903 315.946 548.948 310.409C552.34 296.222 560.784 283.701 572.749 275.119C572.749 275.119 586.155 254.243 604.333 250.831C604.333 250.831 640.674 217.58 638.941 181.437L636.783 178.445C636.783 178.445 622.937 186.541 613.422 184.835L607.798 188.246C607.798 188.246 603.026 184.415 594.818 190.805C594.818 190.805 587.888 179.731 580.135 183.129L585.318 178.025C585.318 178.025 582.293 167.804 558.066 155.877C558.066 155.877 553.309 150.759 546.819 135.42L537.304 129.464C537.304 129.464 535.997 120.515 534.705 111.147C534.705 111.147 529.507 104.323 523.884 103.918C523.154 99.9792 522.722 95.9925 522.592 91.9908C522.592 91.9908 517.834 91.5715 510.845 76.6518C510.845 76.6518 502.637 62.5994 500.464 61.3127L497.028 54.9371L498.761 52.3927C498.761 52.3927 506.558 65.1728 512.181 67.298C512.181 67.298 519.523 58.349 511.741 43.01C511.741 43.01 503.518 46.8556 492.271 41.3185C492.271 41.3185 481.464 43.4437 476.707 46.8556C476.707 46.8556 472.801 43.01 464.593 45.5689C464.593 45.5689 467.177 39.6126 443.39 40.8848L450.306 39.1789L436.034 36.6344C436.575 36.1584 436.918 35.5021 436.996 34.792C437.075 34.082 436.884 33.3684 436.46 32.7888C435.168 30.1865 419.163 28.9143 413.539 40.48C413.539 40.48 419.589 46.4363 410.074 49.8482C410.074 49.8482 397.961 42.1859 388.446 43.0245C388.446 43.0245 383.689 38.7741 383.689 34.5092C383.689 34.5092 375.892 30.2588 368.11 32.8033C368.11 32.8033 363.352 25.141 356.363 27.6999C356.363 27.6999 346.848 22.5821 358.536 16.6257C359.1 14.8021 358.963 12.8379 358.15 11.1076C357.338 9.3773 355.907 8.00173 354.131 7.24303C354.131 7.24303 358.022 6.82377 358.536 1.28668C358.536 1.28668 350.314 -2.54446 343.383 3.41188C343.383 3.41188 336.467 -1.27223 324.295 3.8456C324.295 3.8456 305.691 -3.38297 289.687 6.40451H282.022C282.022 6.40451 267.75 16.192 254.344 2.55891C254.344 2.55891 248.721 4.26486 244.815 12.7801C244.815 12.7801 233.567 20.4569 224.919 22.5821C224.919 22.5821 217.137 30.2588 218.003 39.627C212.034 46.0826 204.154 50.5279 195.479 52.3349C195.479 52.3349 188.989 56.5853 187.257 62.9753C187.257 62.9753 179.049 62.9753 174.291 76.1891C174.291 76.1891 159.138 88.1163 155.203 99.1905C155.203 99.1905 165.158 117.985 143.956 146.899L149.154 155.848L145.292 166.069C145.292 166.069 163.088 172.04 169.094 203.123C169.094 203.123 184.232 213.778 203.276 226.977C203.276 226.977 238.31 216.756 249.557 226.124C249.557 226.124 298.878 200.101 304.943 228.264C304.943 228.264 304.517 232.948 327.437 227.411C327.437 227.411 342.12 236.36 331.769 250.831C332.329 253.484 332.31 256.223 331.713 258.868C331.115 261.513 329.953 264.002 328.303 266.17C329.183 268.825 329.904 271.529 330.462 274.266C330.462 274.266 361.62 303.181 361.179 322.409L358.154 324.953C358.154 324.953 366.818 340.726 363.778 347.954C360.739 355.183 351.664 350.094 351.239 388.001C351.239 388.001 371.134 415.686 371.134 425.069C371.134 425.069 368.11 448.489 383.689 462.976C383.689 462.976 392.337 478.734 392.337 481.77C392.337 481.77 400.119 486.454 394.07 492.844C394.07 492.844 395.362 505.19 407.049 506.043C416.481 501.641 427.128 500.441 437.326 502.632C453.771 506.477 472.375 487.307 481.023 473.24L491.404 465.578C491.404 465.578 500.068 454.504 494.87 447.261C494.87 447.261 497.028 441.29 503.092 440.437C503.092 440.437 523.429 440.437 515.206 411.045C515.206 411.045 507.424 405.942 525.161 398.265C525.161 398.265 530.785 394.868 532.503 390.184C532.503 390.184 556.73 385.066 559.314 370.58C559.329 370.537 558.903 351.8 558.903 346.263Z" fill="#E81A6B"/>
</g>
<rect y="29" width="47" height="477" fill="#314045"/>
<rect x="759.083" y="505" width="47" height="477" transform="rotate(180 759.083 505)" fill="#314045"/>
<rect y="29" width="144" height="47" fill="#314045"/>
<rect x="759.165" y="505.019" width="144" height="47" transform="rotate(180 759.165 505.019)" fill="#314045"/>
<rect y="459" width="144" height="47" fill="#314045"/>
<rect x="759" y="75.0187" width="144" height="47" transform="rotate(180 759 75.0187)" fill="#314045"/>
<defs>
<clipPath id="clip0_7_26">
<rect width="495" height="506" fill="white" transform="translate(144)"/>
</clipPath>
</defs>
</svg>
