<svg width="922" height="698" viewBox="0 0 922 698" fill="none" xmlns="http://www.w3.org/2000/svg">
<g clip-path="url(#clip0_7_25)">
<path d="M639.903 442.263C639.903 442.263 646.819 437.564 635.572 432.88C635.769 430.758 635.484 428.619 634.738 426.618C633.991 424.618 632.801 422.806 631.255 421.315C631.255 421.315 639.903 411.946 629.948 406.409C633.34 392.222 641.784 379.701 653.749 371.119C653.749 371.119 667.155 350.243 685.333 346.831C685.333 346.831 721.674 313.58 719.941 277.437L717.783 274.445C717.783 274.445 703.937 282.541 694.422 280.835L688.798 284.246C688.798 284.246 684.026 280.415 675.818 286.805C675.818 286.805 668.888 275.731 661.135 279.129L666.318 274.025C666.318 274.025 663.293 263.804 639.066 251.877C639.066 251.877 634.309 246.759 627.819 231.42L618.304 225.464C618.304 225.464 616.997 216.515 615.705 207.147C615.705 207.147 610.507 200.323 604.884 199.918C604.154 195.979 603.722 191.992 603.592 187.991C603.592 187.991 598.834 187.572 591.845 172.652C591.845 172.652 583.637 158.599 581.464 157.313L578.028 150.937L579.761 148.393C579.761 148.393 587.558 161.173 593.181 163.298C593.181 163.298 600.523 154.349 592.741 139.01C592.741 139.01 584.518 142.856 573.271 137.319C573.271 137.319 562.464 139.444 557.707 142.856C557.707 142.856 553.801 139.01 545.593 141.569C545.593 141.569 548.177 135.613 524.39 136.885L531.306 135.179L517.034 132.634C517.575 132.158 517.918 131.502 517.996 130.792C518.075 130.082 517.884 129.368 517.46 128.789C516.168 126.187 500.163 124.914 494.539 136.48C494.539 136.48 500.589 142.436 491.074 145.848C491.074 145.848 478.961 138.186 469.446 139.024C469.446 139.024 464.689 134.774 464.689 130.509C464.689 130.509 456.892 126.259 449.11 128.803C449.11 128.803 444.352 121.141 437.363 123.7C437.363 123.7 427.848 118.582 439.536 112.626C440.1 110.802 439.963 108.838 439.15 107.108C438.338 105.377 436.907 104.002 435.131 103.243C435.131 103.243 439.022 102.824 439.536 97.2867C439.536 97.2867 431.314 93.4555 424.383 99.4119C424.383 99.4119 417.467 94.7278 405.295 99.8456C405.295 99.8456 386.691 92.617 370.687 102.405H363.022C363.022 102.405 348.75 112.192 335.344 98.5589C335.344 98.5589 329.721 100.265 325.815 108.78C325.815 108.78 314.567 116.457 305.919 118.582C305.919 118.582 298.137 126.259 299.003 135.627C293.034 142.083 285.154 146.528 276.479 148.335C276.479 148.335 269.989 152.585 268.257 158.975C268.257 158.975 260.049 158.975 255.291 172.189C255.291 172.189 240.138 184.116 236.203 195.19C236.203 195.19 246.158 213.985 224.956 242.899L230.154 251.848L226.292 262.069C226.292 262.069 244.088 268.04 250.094 299.123C250.094 299.123 265.232 309.778 284.276 322.977C284.276 322.977 319.31 312.756 330.557 322.124C330.557 322.124 379.878 296.101 385.943 324.264C385.943 324.264 385.517 328.948 408.437 323.411C408.437 323.411 423.12 332.36 412.769 346.831C413.329 349.484 413.31 352.223 412.713 354.868C412.115 357.513 410.953 360.002 409.303 362.17C410.183 364.825 410.904 367.529 411.462 370.266C411.462 370.266 442.62 399.181 442.179 418.409L439.154 420.953C439.154 420.953 447.818 436.726 444.778 443.954C441.739 451.183 432.664 446.094 432.239 484.001C432.239 484.001 452.134 511.686 452.134 521.069C452.134 521.069 449.11 544.489 464.689 558.976C464.689 558.976 473.337 574.734 473.337 577.77C473.337 577.77 481.119 582.454 475.07 588.844C475.07 588.844 476.362 601.19 488.049 602.043C497.481 597.641 508.128 596.441 518.326 598.632C534.771 602.477 553.375 583.307 562.023 569.24L572.404 561.578C572.404 561.578 581.068 550.504 575.87 543.261C575.87 543.261 578.028 537.29 584.092 536.437C584.092 536.437 604.429 536.437 596.206 507.045C596.206 507.045 588.424 501.942 606.161 494.265C606.161 494.265 611.785 490.868 613.503 486.184C613.503 486.184 637.73 481.066 640.314 466.58C640.329 466.537 639.903 447.8 639.903 442.263Z" fill="#E81A6B"/>
</g>
<rect x="81" y="125" width="47" height="477" fill="white"/>
<rect x="840.083" y="601" width="47" height="477" transform="rotate(180 840.083 601)" fill="white"/>
<rect x="81" y="125" width="144" height="47" fill="white"/>
<rect x="840.165" y="601.019" width="144" height="47" transform="rotate(180 840.165 601.019)" fill="white"/>
<rect x="81" y="555" width="144" height="47" fill="white"/>
<rect x="840" y="171.019" width="144" height="47" transform="rotate(180 840 171.019)" fill="white"/>
<defs>
<clipPath id="clip0_7_25">
<rect width="495" height="506" fill="white" transform="translate(225 96)"/>
</clipPath>
</defs>
</svg>
