<svg width="34" height="26" viewBox="0 0 34 26" fill="none" xmlns="http://www.w3.org/2000/svg">
<path d="M6.46649 22.1428C4.80986 22.1406 3.21708 21.5035 2.01589 20.3626C0.814708 19.2218 0.0964926 17.6639 0.00903644 16.0096C-0.0784197 14.3553 0.471537 12.7304 1.54574 11.4692C2.61994 10.208 4.13668 9.4066 5.78384 9.22976C5.29883 7.32775 5.58926 5.31098 6.59123 3.6231C7.5932 1.93523 9.22464 0.714518 11.1266 0.22951C13.0286 -0.255498 15.0454 0.0349276 16.7333 1.0369C18.4212 2.03887 19.6419 3.6703 20.1269 5.57231C21.2581 5.41481 22.4096 5.49174 23.5097 5.79832C24.6099 6.1049 25.6352 6.63457 26.5219 7.35438C27.4086 8.0742 28.1377 8.96876 28.6639 9.98243C29.19 10.9961 29.502 12.1072 29.5804 13.2466C29.6587 14.386 29.5018 15.5293 29.1194 16.6055C28.7369 17.6816 28.1371 18.6676 27.3573 19.502C26.5775 20.3364 25.6344 21.0015 24.5865 21.4558C23.5387 21.9101 22.4086 22.1439 21.2665 22.1428H6.46649Z" fill="#FF98C0"/>
<path d="M10.4665 25.1428C8.80986 25.1406 7.21708 24.5035 6.01589 23.3626C4.81471 22.2218 4.09649 20.6639 4.00904 19.0096C3.92158 17.3553 4.47154 15.7304 5.54574 14.4692C6.61994 13.208 8.13668 12.4066 9.78384 12.2298C9.29883 10.3278 9.58926 8.31098 10.5912 6.6231C11.5932 4.93523 13.2246 3.71452 15.1266 3.22951C17.0286 2.7445 19.0454 3.03493 20.7333 4.0369C22.4212 5.03887 23.6419 6.6703 24.1269 8.57231C25.2581 8.41481 26.4096 8.49174 27.5097 8.79832C28.6099 9.1049 29.6352 9.63457 30.5219 10.3544C31.4086 11.0742 32.1377 11.9688 32.6639 12.9824C33.19 13.9961 33.502 15.1072 33.5804 16.2466C33.6587 17.386 33.5018 18.5293 33.1194 19.6055C32.7369 20.6816 32.1371 21.6676 31.3573 22.502C30.5775 23.3364 29.6344 24.0015 28.5865 24.4558C27.5387 24.9101 26.4086 25.1439 25.2665 25.1428H10.4665Z" fill="white"/>
</svg>
