<svg width="32" height="29" viewBox="0 0 32 29" fill="none" xmlns="http://www.w3.org/2000/svg">
<path d="M4.2923 17.1692V21.4615C4.2923 23.8323 8.77633 25.7538 14.3077 25.7538C19.839 25.7538 24.3231 23.8323 24.3231 21.4615V17.1692C24.3231 19.54 19.839 21.4615 14.3077 21.4615C8.77633 21.4615 4.2923 19.54 4.2923 17.1692Z" fill="#FF9AC2"/>
<path d="M4.2923 10.0154V14.3077C4.2923 16.6785 8.77633 18.6 14.3077 18.6C19.839 18.6 24.3231 16.6785 24.3231 14.3077V10.0154C24.3231 12.3862 19.839 14.3077 14.3077 14.3077C8.77633 14.3077 4.2923 12.3862 4.2923 10.0154Z" fill="#FF9AC2"/>
<path d="M24.3231 7.15385C24.3231 9.52463 19.839 11.4462 14.3077 11.4462C8.77633 11.4462 4.2923 9.52463 4.2923 7.15385C4.2923 4.78307 8.77633 2.86154 14.3077 2.86154C19.839 2.86154 24.3231 4.78307 24.3231 7.15385Z" fill="#FF9AC2"/>
<path d="M31 7.15384L19.3419 18.6L13.5128 12.8769L4.76923 21.4615M19.3419 7.15384H31H19.3419ZM31 7.15384V18.6V7.15384Z" stroke="white" stroke-width="2" stroke-linecap="round" stroke-linejoin="round"/>
</svg>
