<svg width="25" height="24" viewBox="0 0 25 24" fill="none" xmlns="http://www.w3.org/2000/svg">
<path d="M7.875 2.625V4.375V2.625ZM13.125 2.625V4.375V2.625ZM7.875 16.625V18.375V16.625ZM13.125 16.625V18.375V16.625ZM4.375 7.875H2.625H4.375ZM4.375 13.125H2.625H4.375ZM18.375 7.875H16.625H18.375ZM18.375 13.125H16.625H18.375ZM6.125 16.625H14.875C15.3391 16.625 15.7842 16.4406 16.1124 16.1124C16.4406 15.7842 16.625 15.3391 16.625 14.875V6.125C16.625 5.66087 16.4406 5.21575 16.1124 4.88756C15.7842 4.55937 15.3391 4.375 14.875 4.375H6.125C5.66087 4.375 5.21575 4.55937 4.88756 4.88756C4.55937 5.21575 4.375 5.66087 4.375 6.125V14.875C4.375 15.3391 4.55937 15.7842 4.88756 16.1124C5.21575 16.4406 5.66087 16.625 6.125 16.625ZM7.875 7.875H13.125V13.125H7.875V7.875Z" stroke="#FF9AC2" stroke-linecap="round" stroke-linejoin="round"/>
<path d="M19 12H13V18H19V12Z" fill="white"/>
<path fill-rule="evenodd" clip-rule="evenodd" d="M13 7C13 6.73478 13.1054 6.48043 13.2929 6.29289C13.4804 6.10536 13.7348 6 14 6C14.2652 6 14.5196 6.10536 14.7071 6.29289C14.8946 6.48043 15 6.73478 15 7V8H17V7C17 6.73478 17.1054 6.48043 17.2929 6.29289C17.4804 6.10536 17.7348 6 18 6C18.2652 6 18.5196 6.10536 18.7071 6.29289C18.8946 6.48043 19 6.73478 19 7V8H21C21.5304 8 22.0391 8.21071 22.4142 8.58579C22.7893 8.96086 23 9.46957 23 10V12H24C24.2652 12 24.5196 12.1054 24.7071 12.2929C24.8946 12.4804 25 12.7348 25 13C25 13.2652 24.8946 13.5196 24.7071 13.7071C24.5196 13.8946 24.2652 14 24 14H23V16H24C24.2652 16 24.5196 16.1054 24.7071 16.2929C24.8946 16.4804 25 16.7348 25 17C25 17.2652 24.8946 17.5196 24.7071 17.7071C24.5196 17.8946 24.2652 18 24 18H23V20C23 20.5304 22.7893 21.0391 22.4142 21.4142C22.0391 21.7893 21.5304 22 21 22H19V23C19 23.2652 18.8946 23.5196 18.7071 23.7071C18.5196 23.8946 18.2652 24 18 24C17.7348 24 17.4804 23.8946 17.2929 23.7071C17.1054 23.5196 17 23.2652 17 23V22H15V23C15 23.2652 14.8946 23.5196 14.7071 23.7071C14.5196 23.8946 14.2652 24 14 24C13.7348 24 13.4804 23.8946 13.2929 23.7071C13.1054 23.5196 13 23.2652 13 23V22H11C10.4696 22 9.96086 21.7893 9.58579 21.4142C9.21071 21.0391 9 20.5304 9 20V18H8C7.73478 18 7.48043 17.8946 7.29289 17.7071C7.10536 17.5196 7 17.2652 7 17C7 16.7348 7.10536 16.4804 7.29289 16.2929C7.48043 16.1054 7.73478 16 8 16H9V14H8C7.73478 14 7.48043 13.8946 7.29289 13.7071C7.10536 13.5196 7 13.2652 7 13C7 12.7348 7.10536 12.4804 7.29289 12.2929C7.48043 12.1054 7.73478 12 8 12H9V10C9 9.46957 9.21071 8.96086 9.58579 8.58579C9.96086 8.21071 10.4696 8 11 8H13V7ZM11 10H21V20H11V10Z" fill="white"/>
</svg>
