<svg width="56" height="43" viewBox="0 0 56 43" fill="none" xmlns="http://www.w3.org/2000/svg">
<path d="M4.532 30.45C15.785 23.25 24.457 12.204 29.766 0.199004C29.8 0.125004 29.52 -0.0479957 29.466 0.0130043C25.239 5.046 20.168 9.295 15.094 13.175C10 17.07 4.919 20.61 0.209995 24.639C-0.963005 25.644 3.099 31.372 4.532 30.449V30.45ZM18.96 42.198C31.105 38.148 43.08 33.642 55.591 29.833C55.667 29.809 55.616 29.484 55.536 29.486C48.994 29.573 42.259 29.569 35.554 30.313C28.864 31.053 22.205 32.553 16.181 35.51C14.651 36.26 17.433 42.706 18.959 42.198" fill="#FF9AC2"/>
</svg>
